<?xml version="1.0" standalone="no"?>
<!DOCTYPE svg PUBLIC "-//W3C//DTD SVG 20010904//EN"
 "http://www.w3.org/TR/2001/REC-SVG-20010904/DTD/svg10.dtd">
<svg version="1.0" xmlns="http://www.w3.org/2000/svg"
 width="310.000000pt" height="310.000000pt" viewBox="0 0 310.000000 310.000000"
 preserveAspectRatio="xMidYMid meet">
<metadata>
Created by potrace 1.11, written by Peter Selinger 2001-2013
</metadata>
<g transform="translate(0.000000,310.000000) scale(0.100000,-0.100000)"
fill="#000000" stroke="none">
<path d="M0 1550 l0 -1550 1550 0 1550 0 0 1550 0 1550 -1550 0 -1550 0 0
-1550z m1475 1069 c37 -11 72 -19 215 -52 l55 -13 -2 -54 c-2 -30 -9 -74 -18
-99 -13 -43 -30 -104 -90 -336 -13 -49 -42 -162 -66 -250 -23 -88 -48 -185
-55 -215 -7 -30 -30 -116 -49 -190 -40 -149 -87 -328 -115 -435 -9 -38 -37
-142 -60 -230 -23 -88 -46 -180 -51 -204 -15 -74 -27 -81 -107 -57 -26 8 -96
25 -156 38 -62 13 -111 29 -114 36 -5 13 7 63 49 203 10 36 19 73 19 82 0 9 7
38 16 64 9 26 22 73 29 103 12 51 37 149 98 380 14 52 39 147 55 210 17 63 42
158 56 210 15 52 33 120 41 150 7 30 23 89 33 130 11 41 37 140 57 220 21 80
43 165 51 190 7 25 18 64 24 88 12 46 19 49 85 31z m680 -1498 c56 -26 92 -68
116 -136 23 -66 17 -113 -22 -180 -56 -94 -187 -132 -284 -82 -65 33 -91 62
-115 128 -24 65 -24 75 -4 136 42 125 190 189 309 134z"/>
</g>
</svg>
